<?xml version="1.0" standalone="no"?>
<!DOCTYPE svg PUBLIC "-//W3C//DTD SVG 20010904//EN"
 "http://www.w3.org/TR/2001/REC-SVG-20010904/DTD/svg10.dtd">
<svg version="1.0" xmlns="http://www.w3.org/2000/svg"
 width="260.000000pt" height="260.000000pt" viewBox="0 0 260.000000 260.000000"
 preserveAspectRatio="xMidYMid meet">
<metadata>
Created by potrace 1.14, written by Peter Selinger 2001-2017
</metadata>
<g transform="translate(0.000000,260.000000) scale(0.100000,-0.100000)"
fill="#000000" stroke="none">
<path d="M0 1300 l0 -1300 1300 0 1300 0 0 1300 0 1300 -1300 0 -1300 0 0
-1300z m1151 970 c161 -51 243 -168 256 -364 8 -126 9 -126 -156 -126 -87 0
-132 4 -143 13 -10 7 -18 36 -22 77 -7 72 -26 106 -72 130 -44 22 -268 21
-310 -2 -44 -24 -64 -80 -64 -177 0 -70 3 -83 25 -110 32 -37 93 -58 215 -71
126 -14 261 -46 336 -80 57 -26 144 -99 144 -122 0 -6 -32 -65 -71 -132 -39
-66 -97 -166 -129 -221 -32 -55 -89 -154 -127 -220 -38 -66 -116 -201 -173
-300 -57 -99 -107 -184 -112 -190 -13 -14 7 34 119 293 4 9 -20 12 -103 12
-154 0 -231 24 -321 97 -49 39 -98 131 -113 212 -14 74 -13 174 2 189 8 8 57
12 155 12 162 0 146 10 157 -99 11 -110 48 -131 233 -131 148 0 187 13 215 70
23 45 24 150 2 195 -20 42 -92 82 -164 90 -215 26 -404 78 -472 129 -54 42
-102 122 -124 205 -24 96 -16 334 15 412 38 99 114 170 223 209 46 17 83 19
284 20 205 0 239 -2 295 -20z m1076 -346 c6 -16 0 -24 -272 -399 -120 -166
-212 -302 -208 -308 16 -28 376 -593 490 -770 27 -40 43 -77 41 -90 -3 -21 -7
-22 -140 -25 -107 -2 -144 1 -167 12 -21 11 -73 85 -187 268 -174 280 -224
359 -235 371 -3 5 -41 -31 -83 -80 l-76 -88 0 -223 c0 -135 -4 -231 -10 -243
-10 -17 -22 -19 -148 -19 -94 0 -142 4 -150 12 -9 9 -12 77 -12 245 l0 234
103 177 c87 149 272 470 364 630 13 23 26 42 28 42 6 0 -1 -18 -94 -233 -45
-104 -81 -202 -81 -219 0 -26 4 -22 36 37 19 37 103 167 186 289 83 121 171
251 196 289 71 105 64 101 221 107 155 6 191 3 198 -16z"/>
</g>
</svg>
